<?xml version="1.0" encoding="utf-8"?>
<!-- Generator: Adobe Illustrator 15.0.0, SVG Export Plug-In . SVG Version: 6.00 Build 0)  -->
<!DOCTYPE svg PUBLIC "-//W3C//DTD SVG 1.1//EN" "http://www.w3.org/Graphics/SVG/1.1/DTD/svg11.dtd">
<svg version="1.1" id="Layer_1" xmlns="http://www.w3.org/2000/svg" xmlns:xlink="http://www.w3.org/1999/xlink" x="0px" y="0px"
	 width="69.177px" height="59.626px" viewBox="0 0 69.177 59.626" enable-background="new 0 0 69.177 59.626" xml:space="preserve">
<g>
	<path fill="#33B6EA" d="M24.591,22.375c6.169,0,11.188-5.018,11.188-11.186C35.779,5.02,30.76,0,24.591,0
		S13.402,5.02,13.402,11.189c0,1.633,0.36,3.18,0.991,4.578L1.108,27.248c-0.7,0.605-1.104,1.484-1.108,2.408
		c-0.003,0.926,0.394,1.806,1.09,2.417l21.391,18.77c0.607,0.533,1.359,0.795,2.109,0.795c0.889,0,1.773-0.367,2.406-1.088
		c1.166-1.328,1.034-3.352-0.295-4.516L8.073,29.688l10.508-9.08C20.319,21.721,22.378,22.375,24.591,22.375z M24.591,6.4
		c2.641,0,4.788,2.148,4.788,4.789c0,2.639-2.147,4.785-4.788,4.785s-4.788-2.146-4.788-4.785C19.803,8.549,21.95,6.4,24.591,6.4z"
		/>
	<path fill="#33B6EA" d="M69.177,29.967c0.004-0.924-0.393-1.805-1.09-2.416L46.701,8.781c-1.326-1.164-3.348-1.033-4.516,0.295
		c-1.166,1.328-1.033,3.35,0.295,4.516l18.625,16.346l-10.506,9.08c-1.738-1.111-3.797-1.766-6.008-1.766
		c-6.17,0-11.189,5.018-11.189,11.188s5.019,11.188,11.189,11.188c6.168,0,11.188-5.018,11.188-11.188
		c0-1.633-0.359-3.182-0.992-4.582l13.283-11.48C68.771,31.771,69.173,30.893,69.177,29.967z M44.591,53.228
		c-2.641,0-4.789-2.148-4.789-4.789s2.148-4.789,4.789-4.789s4.787,2.148,4.787,4.789S47.232,53.228,44.591,53.228z"/>
</g>
</svg>
