<?xml version="1.0" encoding="utf-8"?>
<!-- Generator: Adobe Illustrator 22.0.1, SVG Export Plug-In . SVG Version: 6.00 Build 0)  -->
<svg version="1.1" xmlns="http://www.w3.org/2000/svg" xmlns:xlink="http://www.w3.org/1999/xlink" x="0px" y="0px"
	 viewBox="0 0 965.7 561.8" style="enable-background:new 0 0 965.7 561.8;" xml:space="preserve">
<style type="text/css">
	.st0{fill:#3B3E44;}
	.st1{fill:none;stroke:#03A9F4;stroke-width:10;stroke-linejoin:round;stroke-miterlimit:10;}
	.st2{font-family:'Roboto-Regular';}
	.st3{font-size:40px;}
</style>
<g id="Capa_1">
	<g>
		<g>
			<path class="st0" d="M220.6,168.1c-13.7,0-24.8,11.1-24.8,24.8c0,13.7,11.1,24.8,24.8,24.8c13.7,0,24.8-11.1,24.8-24.8
				C245.4,179.2,234.3,168.1,220.6,168.1z M220.6,202.7c-5.4,0-9.8-4.4-9.8-9.8s4.4-9.8,9.8-9.8c5.4,0,9.8,4.4,9.8,9.8
				C230.4,198.3,226,202.7,220.6,202.7z"/>
		</g>
	</g>
	<g>
		<g>
			<path class="st0" d="M291.4,168.1c-13.7,0-24.8,11.1-24.8,24.8c0,13.7,11.1,24.8,24.8,24.8c13.7,0,24.8-11.1,24.8-24.8
				C316.2,179.2,305.1,168.1,291.4,168.1z M291.4,202.7c-5.4,0-9.8-4.4-9.8-9.8s4.4-9.8,9.8-9.8c5.4,0,9.8,4.4,9.8,9.8
				C301.2,198.3,296.8,202.7,291.4,202.7z"/>
		</g>
	</g>
	<g>
		<g>
			<path class="st0" d="M296,229.5h-13.6H256h-26.3H216c-11.1,0-20.2,9.1-20.2,20.2v9.5c0,11.1,9.1,20.2,20.2,20.2
				c19.1,0,63.6,0,79.9,0c11.1,0,20.2-9.1,20.2-20.2v-9.5C316.2,238.6,307.1,229.5,296,229.5z M222.2,264.5H216
				c-2.9,0-5.2-2.3-5.2-5.2v-9.5c0-2.9,2.3-5.2,5.2-5.2h6.1V264.5z M248.5,264.5h-11.3v-19.9h11.3V264.5z M274.8,264.5h-11.3v-19.9
				h11.3V264.5z M301.2,259.2c0,2.9-2.3,5.2-5.2,5.2h-6.1v-19.9h6.1c2.9,0,5.2,2.3,5.2,5.2V259.2z"/>
		</g>
	</g>
	<g>
		<g>
			<path class="st0" d="M511,293.4l-23.6-40.9c-2.1-3.6-6.7-4.8-10.2-2.7c-3.6,2.1-4.8,6.7-2.7,10.2l21.4,37.1l-15.9,27.6
				c-5.4-6.4-13.5-10.5-22.6-10.5c-9.1,0-17.2,4.1-22.6,10.5l-15.9-27.6l21.4-37.1c2.1-3.6,0.8-8.2-2.7-10.2
				c-3.6-2.1-8.2-0.8-10.2,2.7l-23.6,40.9c-1.3,2.3-1.3,5.2,0,7.5c25.2,43.7,23.6,41,24.1,41.6c-0.2,4,0.4,8,1.8,11.7
				c-1,1.9,0-0.7-13.8,38.5h-29.9c-4.1-4-9.2-6.9-15-8.3v-1.1c0-27.8-22.6-50.5-50.5-50.5h-37.3v-16h27.7c21.1,0,41-16.4,41-42.4
				h25.3c11.1,0,20.2-9.1,20.2-20.2v-15.7c0-4.1-3.4-7.5-7.5-7.5s-7.5,3.4-7.5,7.5v15.7c0,2.9-2.3,5.2-5.2,5.2h-25.3v-76.8h25.3
				c2.9,0,5.2,2.3,5.2,5.2v15.7c0,4.1,3.4,7.5,7.5,7.5s7.5-3.4,7.5-7.5v-15.7c0-11.1-9.1-20.2-20.2-20.2h-2.5v-66.7
				c9.3-3.1,16-11.9,16-22.3c0-13-10.6-23.5-23.5-23.5c-13,0-23.5,10.6-23.5,23.5c0,10.4,6.7,19.2,16,22.3v66.7h-7.8
				c0-26-19.8-42.4-41-42.4H201.2c-22.6,0-41,18.4-41,41v1.5h-25.3c-11.1,0-20.2,9.1-20.2,20.2v66.4c0,11.1,9.1,20.2,20.2,20.2h25.3
				v1.5c0,22.6,18.4,41,41,41h27.7v16h-37.3c-26.5,0-50.5,20.9-50.5,51.6c-5.7,1.4-10.9,4.3-15,8.3H96.2l-12.6-35.9
				c-0.3-0.9-0.7-1.7-1.1-2.6c1.4-3.7,2-7.6,1.8-11.7c0.5-0.6-1.1,2.1,24.1-41.6c1.3-2.3,1.3-5.2,0-7.5l-23.6-40.9
				c-2.1-3.6-6.7-4.8-10.2-2.7c-3.6,2.1-4.8,6.7-2.7,10.2l21.4,37.1l-15.9,27.6c-5.4-6.4-13.6-10.5-22.6-10.5s-17.2,4.1-22.6,10.5
				l-15.9-27.6l21.4-37.1c2.1-3.6,0.8-8.2-2.7-10.2c-3.6-2.1-8.2-0.8-10.2,2.7L1,293.4c-1.3,2.3-1.3,5.2,0,7.5l23.6,40.9
				c0.2,0.3,0.3,0.5,0.5,0.8c-0.6,12.4,6.6,23.4,17.3,28.3c0.3,1-1.9-5.4,17.9,50.8c3.1,8.7,11.3,14.5,20.5,14.5H124
				c4.3,5.2,10.3,8.9,17,10.6v57.9h-1.2c-11.9,0-21.5,9.7-21.5,21.5v14c0,11.9,9.7,21.5,21.5,21.5h98.6c4.1,0,7.5-3.4,7.5-7.5
				c0-4.1-3.4-7.5-7.5-7.5h-98.6c-3.6,0-6.5-2.9-6.5-6.5v-14c0-3.6,2.9-6.5,6.5-6.5c6.5,0,196.6,0,223.6,0h8.7
				c3.6,0,6.5,2.9,6.5,6.5v14c0,3.6-2.9,6.5-6.5,6.5h-98.6c-4.1,0-7.5,3.4-7.5,7.5c0,4.1,3.4,7.5,7.5,7.5h98.6
				c11.9,0,21.5-9.7,21.5-21.5v-14c0-10.9-8.3-21.5-22.7-21.5v-57.9c6.8-1.6,12.7-5.4,17-10.6h43.2c9.2,0,17.5-5.8,20.5-14.5
				c19.8-56.2,17.6-49.9,17.9-50.8c10.6-4.9,17.8-15.9,17.3-28.3c0.5-0.6-1.1,2.1,24.1-41.6C512.3,298.6,512.3,295.8,511,293.4z
				 M358.5,78.6c0-4.7,3.8-8.5,8.5-8.5s8.5,3.8,8.5,8.5s-3.8,8.5-8.5,8.5C362.4,87.1,358.5,83.3,358.5,78.6z M160.2,259.4h-25.3
				c-2.9,0-5.2-2.3-5.2-5.2v-66.4c0-2.9,2.3-5.2,5.2-5.2h25.3L160.2,259.4L160.2,259.4z M40.1,343.9c0-8.1,6.6-14.6,14.6-14.6
				c15.3,0,20.5,21.1,6.2,27.8C51.4,361.7,40.1,354.7,40.1,343.9z M117,421.2H80.8c-2.9,0-5.4-1.8-6.4-4.5l-15.3-43.5
				c4.6-0.7,8.9-2.5,12.6-5l12.2,34.5c1.1,3,3.9,5,7.1,5h26.5C116.4,411.9,116.2,416.6,117,421.2z M141.1,430.9
				c-12.8-6.3-12.7-24.5,0-30.7V430.9z M201.2,301.8c-14.3,0-26-11.7-26-26V166.1c0-14.3,11.7-26,26-26h109.7c14.3,0,26,11.7,26,26
				c0,10.9,0,98.8,0,109.7c0,14.3-11.7,26-26,26C303.5,301.8,208.2,301.8,201.2,301.8z M268.2,316.8v16h-24.3v-16H268.2z
				 M156.1,383.3c0-19.6,15.9-35.5,35.5-35.5c1.5,0,109.8,0,128.9,0c19.6,0,35.5,15.9,35.5,35.5v1.2c-6.9,0-137.6,0-144.6,0h-55.3
				L156.1,383.3L156.1,383.3z M284.8,399.5L257.4,433c-0.5,0.6-0.9,0.9-1.4,0.9c-0.4,0-0.9-0.3-1.4-0.9l-27.4-33.5H284.8z
				 M355.9,504.7H156.1c0-9.4,0-93.2,0-105.2h51.8l35.2,43c3.3,4.1,8,6.4,13,6.4c0,0,0,0,0,0c4.9,0,9.7-2.3,13-6.4l35.2-43h51.8
				C355.9,411.5,355.9,495.3,355.9,504.7z M370.9,430.9v-30.7C383.5,406.4,383.8,424.6,370.9,430.9z M437.6,416.7
				c-1,2.7-3.5,4.5-6.4,4.5H395c0.8-4.6,0.6-9.3-0.5-13.5h26.5c3.2,0,6-2,7.1-5l12.2-34.5c3.7,2.6,7.9,4.4,12.6,5L437.6,416.7z
				 M446.6,353.9c-8.7-9.3-2.1-24.6,10.7-24.6c8.1,0,14.6,6.6,14.6,14.6C471.9,357.2,455.5,363.5,446.6,353.9z"/>
		</g>
	</g>
	<g id="Ebene_2">
	</g>
</g>
<g id="Ebene_3">
	<path class="st1" d="M488.4,177.6v-32.8L455.8,116l32.7-28.5V26c0-11.6,9.4-21,21-21h430.3c11.6,0,21,9.4,21,21v151.5
		c0,11.6-9.4,21-21,21H509.5C497.8,198.6,488.4,189.2,488.4,177.6z"/>
</g>
<g id="Ebene_4">
	<text transform="matrix(1 0 0 1 535.9075 89.4758)"><tspan x="0" y="0" class="st0 st2 st3">Hmm... No sparks of </tspan><tspan x="-0.2" y="48" class="st0 st2 st3">genious here just yet.</tspan></text>
</g>
</svg>
