<svg id="Ebene_1" data-name="Ebene 1" xmlns="http://www.w3.org/2000/svg" viewBox="0 0 124.38 127.22"><defs><style>.cls-1{fill:#03a9f4;}</style></defs><title>robot_6</title><path class="cls-1" d="M100,74.83l-.74-.06V71.55a4.11,4.11,0,0,0-2.48-3.78l-1.33-.57,1.65-1.12a5.78,5.78,0,0,0,2.6-2.74l.34-.83.78.43a10.61,10.61,0,0,0,11.35-.67,10.47,10.47,0,0,0,3.66-4.78,1.09,1.09,0,1,0-2-.78,8.4,8.4,0,0,1-14.61,1.93,8.39,8.39,0,0,1,6.36-13.31,1.1,1.1,0,0,0,.67-1.91,1.06,1.06,0,0,0-.79-.28,10.58,10.58,0,0,0-9.86,12.53l.17.88-.89.06A5.71,5.71,0,0,0,91.7,58L90,59.1V57.6c0-7.84,0-13.67,0-18,0-12.88,0-12.88-.11-14.21l0-.29c0-.27-.06-.54-.09-.81a27.85,27.85,0,0,0-55.47,3.57V67.44h-5.1a4.12,4.12,0,0,0-4.11,4.11v3.22l-.74.06a26.23,26.23,0,1,0,26.27,35.69l.2-.51h6.6a1.09,1.09,0,1,0,0-2.18H51.58l.22-1a27.27,27.27,0,0,0,.6-4l0-.74h19.5l0,.75a27.93,27.93,0,0,0,.6,4l.23,1H66.27a1.09,1.09,0,1,0,0,2.18h7.25l.2.51A26.23,26.23,0,1,0,100,74.83Zm-4.87-16h.08a2.67,2.67,0,0,1,1.51,4.88l-5.77,3.95L82.3,73.51l-.91.63-.3-1.06A8.59,8.59,0,0,0,79.48,70l-.56-.67.72-.49,7.86-5.37C94.37,58.77,94.37,58.76,95.12,58.79ZM54.36,54.18a8.58,8.58,0,0,0,2.84-1.94l.64-.67L69.78,67.52,69,68a8.35,8.35,0,0,0-2.63,2.22L65.7,71,53.4,54.56Zm-3-1.56h-.21A6.11,6.11,0,0,1,45,47a6,6,0,0,1,4.89-6.68,6.26,6.26,0,0,1,4.76.93,6,6,0,0,1,2.52,6.84A6.15,6.15,0,0,1,51.35,52.62ZM70,69.91a6.25,6.25,0,0,1,9.26,5.42A6.27,6.27,0,0,1,73,81.6a6.07,6.07,0,0,1-6-4.65A6.19,6.19,0,0,1,70,69.91ZM36.53,27.85a25.66,25.66,0,0,1,50.73-5.52l.21,1H65.21A4.12,4.12,0,0,0,61.1,27.4v6.68a4.12,4.12,0,0,0,4.11,4.11h5a1.09,1.09,0,1,0,0-2.18h-5a1.93,1.93,0,0,1-1.92-1.93V27.4a1.93,1.93,0,0,1,1.92-1.92H87.75l.06.87,0,.54v.21c0,.25,0,.5,0,.75V36h-8.8a1.09,1.09,0,1,0,0,2.18h8.8V60.6l-10,6.84h-2l-.12,0A8.55,8.55,0,0,0,73,66.95h-.44l-.43,0L59,49.46l.13-.4a8.44,8.44,0,0,0,.44-2.72,8.22,8.22,0,0,0-5.21-7.7,8.39,8.39,0,0,0-11.64,7.8,8.42,8.42,0,0,0,7.77,8.35l.37,0L60.3,67.44H36.53Zm-9.2,43.7a1.93,1.93,0,0,1,1.92-1.93H61.94l2.84,3.79-.07.34a8.45,8.45,0,0,0,.87,5.61,7.65,7.65,0,0,0,.56.88l.15.21.83,1.24H44l-.23-.21a26.21,26.21,0,0,0-15.71-6.67l-.74-.06ZM49.74,106A24,24,0,1,1,26.23,76.95,24.07,24.07,0,0,1,49.74,106ZM72,99.15l0,.75H52.44l0-.75a26.06,26.06,0,0,0-5.25-14l-1-1.28H77.53l2.56-4a8.4,8.4,0,0,0,1.12-2.71l.06-.31,10.61-7.24h3.25a1.93,1.93,0,0,1,1.92,1.93v3.22l-.74,0a26.11,26.11,0,0,0-15.05,6.1l-3.52,3h.46l-1,1.28A25.86,25.86,0,0,0,72,99.15ZM98.15,125a24,24,0,1,1,24-24A24.07,24.07,0,0,1,98.15,125Z"/><path class="cls-1" d="M98.15,86.82A14.17,14.17,0,1,0,112.32,101,14.18,14.18,0,0,0,98.15,86.82Zm0,26.14a12,12,0,1,1,12-12A12,12,0,0,1,98.15,113Z"/><path class="cls-1" d="M98.15,93.12A7.87,7.87,0,1,0,106,101,7.88,7.88,0,0,0,98.15,93.12Zm0,13.56a5.69,5.69,0,1,1,5.68-5.69A5.7,5.7,0,0,1,98.15,106.68Z"/><path class="cls-1" d="M26.23,86.82A14.17,14.17,0,1,0,40.39,101,14.18,14.18,0,0,0,26.23,86.82Zm0,26.14a12,12,0,1,1,12-12A12,12,0,0,1,26.23,113Z"/><path class="cls-1" d="M26.23,93.12A7.87,7.87,0,1,0,34.1,101,7.88,7.88,0,0,0,26.23,93.12Zm0,13.56A5.68,5.68,0,1,1,31.91,101,5.7,5.7,0,0,1,26.23,106.68Z"/><path class="cls-1" d="M73.86,75.36a.87.87,0,1,1-.87-.87A.88.88,0,0,1,73.86,75.36Z"/></svg>