<svg id="Ebene_1" data-name="Ebene 1" xmlns="http://www.w3.org/2000/svg" viewBox="0 0 126.28 125.98"><defs><style>.cls-1{fill:#fff;}</style></defs><title>robot_2</title><path class="cls-1" d="M53.12,38.31a6.14,6.14,0,1,0,6.14,6.13A6.15,6.15,0,0,0,53.12,38.31Zm0,9.8a3.66,3.66,0,1,1,3.66-3.67A3.67,3.67,0,0,1,53.12,48.11Z"/><path class="cls-1" d="M73.15,38.31a6.14,6.14,0,1,0,6.14,6.13A6.14,6.14,0,0,0,73.15,38.31ZM75.74,47a3.66,3.66,0,1,1,1.07-2.59A3.66,3.66,0,0,1,75.74,47Z"/><path class="cls-1" d="M119.81,87.88A6.19,6.19,0,1,0,116.08,77l-.37.32-4.56-3.15.2-.47A11.74,11.74,0,0,0,97.48,57.73l-.8.22V48.8a1.24,1.24,0,0,0-2.48,0v9.81H32.07V46.14a23,23,0,0,1,23-23H71.21A23,23,0,0,1,93.47,40.4a1.25,1.25,0,0,0,1.51.89,1.23,1.23,0,0,0,.89-1.51,25.43,25.43,0,0,0-24.66-19.1H64.38V12.17l.45-.13a6.13,6.13,0,1,0-3.39,0l.46.13v8.51H55.06A25.49,25.49,0,0,0,29.6,46.14V57.95l-.8-.22A11.74,11.74,0,0,0,14.93,73.68l.2.47-4.56,3.15L10.2,77a6.19,6.19,0,1,0-4,10.89h.29l.47,0,4.31,12.61L7.58,101.7a4.25,4.25,0,0,0-2.81,3.17l-2,10a4.24,4.24,0,0,0,1.35,4L8.77,123a4.21,4.21,0,0,0,2.8,1.07,4.24,4.24,0,0,0,2.81-7.42l-2.85-2.52L12.59,109l5-1.68,4,3.51-.72,3.54a4.25,4.25,0,0,0,3.31,5,4.09,4.09,0,0,0,.85.08A4.24,4.24,0,0,0,29.13,116l1.22-5.95A4.27,4.27,0,0,0,29,106L21.38,99.3a4.27,4.27,0,0,0-4.15-.84L13.6,99.67,9.29,87.06l.39-.27a6.17,6.17,0,0,0,2.4-7l-.14-.44,4.5-3.1.37.43A11.78,11.78,0,0,0,29,80.33l.72-.21.08.75a33.12,33.12,0,0,0,9,19.38l.26.27-.11.35c-.36,1.17-.36,1.17-.34,9.38,0,2.1,0,4.74,0,8.06a7.68,7.68,0,0,0,15.36,0v-8.89l.79.2a33.71,33.71,0,0,0,16.65,0l.79-.2v8.89a7.68,7.68,0,0,0,15.36,0c0-3.32,0-6,0-8.06,0-8.21,0-8.21-.34-9.35l-.1-.35.24-.3a33.11,33.11,0,0,0,9-19.38l.08-.75.72.21a11.78,11.78,0,0,0,12.2-3.63l.37-.43,4.5,3.1-.14.44a6.14,6.14,0,0,0,2.4,7l.39.27-4.31,12.61-3.62-1.21a4.27,4.27,0,0,0-4.15.84L97.27,106a4.26,4.26,0,0,0-1.34,4L97.14,116a4.25,4.25,0,0,0,4.15,3.39,4.09,4.09,0,0,0,.85-.08,4.24,4.24,0,0,0,3.31-5l-.72-3.54,4-3.51,5,1.68,1,5.18-2.84,2.52a4.24,4.24,0,1,0,5.61,6.35l4.68-4.14a4.26,4.26,0,0,0,1.34-4l-2-10a4.24,4.24,0,0,0-2.8-3.17L115,100.46l4.31-12.61ZM59.48,6.14A3.66,3.66,0,1,1,63.13,9.8,3.66,3.66,0,0,1,59.48,6.14ZM18,100.81a1.77,1.77,0,0,1,1.73.35l7.63,6.74a1.76,1.76,0,0,1,.55,1.67l-1.21,5.95a1.76,1.76,0,1,1-3.45-.7l.86-4.25a1.26,1.26,0,0,0-.39-1.17l-5-4.45a1.26,1.26,0,0,0-1.22-.25l-6.37,2.13a1.24,1.24,0,0,0-.81.93L9,114.34a1.23,1.23,0,0,0,.39,1.17l3.38,3a1.76,1.76,0,1,1-2.33,2.63L5.72,117a1.75,1.75,0,0,1-.55-1.67l2-10A1.74,1.74,0,0,1,8.36,104Zm-9.2-16.5a3.71,3.71,0,1,1,1.08-2.62A3.69,3.69,0,0,1,8.81,84.31ZM29.6,77.48l-.39.16a9.26,9.26,0,1,1,0-17.17l.39.16Zm21.94,40.83a5.2,5.2,0,1,1-10.4,0c0-3.17,0-5.73,0-7.81,0-9,0-9.15,1.17-10.66a5.2,5.2,0,0,1,9.25,3.26Zm33.6-8.1c0,2.11,0,4.75,0,8.1a5.2,5.2,0,0,1-10.4,0V103.1a5.2,5.2,0,0,1,9.84-2.35l.06.13C85.17,101.94,85.17,101.94,85.14,110.2Zm9.05-39.84H67.5a1.24,1.24,0,0,0,0,2.48h26.7v4.27a31,31,0,0,1-7.82,20.61l-.45.5-.47-.49a7.69,7.69,0,0,0-13.2,5.34v3.73l-.45.13a31,31,0,0,1-17.33,0l-.45-.13V103.1a7.69,7.69,0,0,0-13.2-5.34l-.47.49-.45-.5a30.94,30.94,0,0,1-7.83-20.61V72.85H58.78a1.24,1.24,0,0,0,0-2.48H32.07V61.09H94.19Zm6.36,8a9.17,9.17,0,0,1-3.48-.69l-.39-.16V60.63l.39-.16a9.27,9.27,0,1,1,3.48,17.85ZM117.91,104a1.76,1.76,0,0,1,1.17,1.32l2,10a1.76,1.76,0,0,1-.56,1.67l-4.68,4.14a1.75,1.75,0,0,1-1.17.44,1.76,1.76,0,0,1-1.17-3.08l3.39-3a1.26,1.26,0,0,0,.39-1.17L116,107.76a1.24,1.24,0,0,0-.82-.93l-6.36-2.13a1.26,1.26,0,0,0-1.22.25l-5,4.45a1.22,1.22,0,0,0-.39,1.17l.86,4.25a1.76,1.76,0,0,1-1.38,2.08,1.77,1.77,0,0,1-2.07-1.38l-1.22-5.95a1.79,1.79,0,0,1,.56-1.67l7.62-6.74a1.76,1.76,0,0,1,1.73-.35Zm-1.54-22.35a3.71,3.71,0,1,1,3.71,3.71,3.72,3.72,0,0,1-3.71-3.71Z"/></svg>
