<svg id="Ebene_1" data-name="Ebene 1" xmlns="http://www.w3.org/2000/svg" viewBox="0 0 134.68 133.29"><defs><style>.cls-1{fill:#03a9f4;}</style></defs><title>robot_4</title><path class="cls-1" d="M61.95,31.81a5.72,5.72,0,1,0,1.68,4.05A5.7,5.7,0,0,0,61.95,31.81Zm-4,7.55a3.5,3.5,0,1,1,3.5-3.5A3.5,3.5,0,0,1,57.91,39.36Z"/><path class="cls-1" d="M76.77,30.13a5.72,5.72,0,1,0,5.72,5.73A5.73,5.73,0,0,0,76.77,30.13Zm0,9.23a3.5,3.5,0,1,1,3.5-3.5A3.5,3.5,0,0,1,76.77,39.36Z"/><path class="cls-1" d="M78,46.51H56.69a4.51,4.51,0,0,0-4.5,4.5v2.53a4.51,4.51,0,0,0,4.5,4.5H78a4.5,4.5,0,0,0,4.49-4.5V51A4.5,4.5,0,0,0,78,46.51ZM59.21,55.82H56.69a2.27,2.27,0,0,1-2.28-2.28V51a2.27,2.27,0,0,1,2.28-2.28h2.52Zm7,0h-4.8V48.73h4.8Zm7,0h-4.8V48.73h4.8Zm7-2.28A2.27,2.27,0,0,1,78,55.82H75.47V48.73H78A2.27,2.27,0,0,1,80.26,51Z"/><path class="cls-1" d="M134.52,63.1l-6.29-10.88a1.1,1.1,0,0,0-.67-.52,1.08,1.08,0,0,0-.85.11,1.12,1.12,0,0,0-.51.67,1.07,1.07,0,0,0,.11.85l6,10.34-5.13,8.89-.82-1a7,7,0,0,0-10.69,0l-.82,1-5.14-8.89,6-10.34a1.18,1.18,0,0,0,.11-.85,1.14,1.14,0,0,0-.52-.67,1,1,0,0,0-.84-.11,1.09,1.09,0,0,0-.69.52L107.44,63.1a1.12,1.12,0,0,0,0,1.12l3.89,6.72,2.46,4.25.17.25,0,.35a6.83,6.83,0,0,0,.43,2.75l.14.37-.18.34c-.18.33-.2.43-1.75,4.81L110.55,90h-9l-.26-.25a7.55,7.55,0,0,0-3.57-2l-.69-.17v-1A12.58,12.58,0,0,0,84.52,74H73.68V68H82A10,10,0,0,0,92,57.57v-.89h7.63a4.51,4.51,0,0,0,4.5-4.5V48a1.12,1.12,0,0,0-2.23,0v4.17a2.27,2.27,0,0,1-2.27,2.28H92V32.22h7.63a2.27,2.27,0,0,1,2.27,2.28v4.17a1.12,1.12,0,0,0,2.23,0V34.5a4.51,4.51,0,0,0-4.5-4.5H98V10.69l.6-.2a5.39,5.39,0,1,0-3.43,0l.6.2V30H92v-.89A10,10,0,0,0,82,18.69H52.72a10,10,0,0,0-10,10V30H35.06a4.51,4.51,0,0,0-4.5,4.5V52.18a4.51,4.51,0,0,0,4.5,4.5h7.63V58a10,10,0,0,0,10,10H61v6H50.16A12.59,12.59,0,0,0,37.6,86.9v.7l-.69.17a7.55,7.55,0,0,0-3.57,2l-.26.25h-9L20.56,79.84a5.09,5.09,0,0,0-.26-.58l-.18-.34.14-.37a6.86,6.86,0,0,0,.43-2.75v-.32l.19-.26c.08-.12.5-.84,2.26-3.88l4.11-7.13a1.12,1.12,0,0,0,0-1.12L20.95,52.22a1.1,1.1,0,0,0-.67-.52,1.07,1.07,0,0,0-.85.11,1.1,1.1,0,0,0-.4,1.52l6,10.34-5.14,8.89-.82-1a7,7,0,0,0-10.69,0l-.82,1L2.4,63.67l6-10.34a1.13,1.13,0,0,0,.12-.85A1.19,1.19,0,0,0,8,51.8a1.07,1.07,0,0,0-.85-.11,1.1,1.1,0,0,0-.67.52L.15,63.1a1.12,1.12,0,0,0,0,1.12L6.44,75.12a.65.65,0,0,0,.08.11l.19.26,0,.32a7,7,0,0,0,4.09,6.69l.35.15.12.37,1.23,3.5,3.53,10a4.93,4.93,0,0,0,4.64,3.27H32.57l.27.32a7.68,7.68,0,0,0,4.06,2.52l.69.17v17H36.39a4.86,4.86,0,0,0-4.86,4.84v3.75a4.87,4.87,0,0,0,4.86,4.86H62.67a1.12,1.12,0,0,0,0-2.23H36.39a2.62,2.62,0,0,1-2.62-2.62v-3.75a2.62,2.62,0,0,1,2.62-2.62H98.28a2.62,2.62,0,0,1,2.62,2.62v3.75a2.62,2.62,0,0,1-2.62,2.62H72a1.12,1.12,0,0,0,0,2.23H98.28a4.87,4.87,0,0,0,4.86-4.86v-3.75A4.85,4.85,0,0,0,98,119.84h-.89v-17l.69-.17a7.76,7.76,0,0,0,4.08-2.52l.26-.32H114a4.92,4.92,0,0,0,4.64-3.27l3.26-9.28,1.48-4.21.12-.37.38-.21A7,7,0,0,0,128,75.8l0-.32.2-.26c.08-.12.5-.84,2.25-3.88l4.11-7.13A1.12,1.12,0,0,0,134.52,63.1ZM93.78,5.39a3.16,3.16,0,1,1,3.15,3.17A3.16,3.16,0,0,1,93.78,5.39ZM42.69,54.46H35.06a2.27,2.27,0,0,1-2.27-2.28V34.5a2.27,2.27,0,0,1,2.27-2.28h7.63ZM11.14,80.14a4.72,4.72,0,0,1-2.23-4,4.79,4.79,0,0,1,4.79-4.77,4.78,4.78,0,0,1,2,9.1,4.72,4.72,0,0,1-4.6-.3Zm20,16.42.19,1H20.65a2.69,2.69,0,0,1-2.54-1.8L13.67,83.2,14.73,83a7.2,7.2,0,0,0,3-1.19l1-.67,3.63,10.3a1.12,1.12,0,0,0,1.05.74h8.21l-.28,1.1A7.86,7.86,0,0,0,31.16,96.56Zm6.44,4.16-1.28-.63a5.44,5.44,0,0,1,0-9.77l1.28-.63Zm15.12-35A7.83,7.83,0,0,1,44.91,58V28.73a7.83,7.83,0,0,1,7.81-7.81H82a7.83,7.83,0,0,1,7.81,7.81V58A7.83,7.83,0,0,1,82,65.77ZM71.46,68v6H63.21V68Zm23.4,51.85h-55V90h15.1l9.65,11.79a3.47,3.47,0,0,0,5.54,0L79.76,90h15.1ZM57.79,90h19.1l-8.5,10.39a1.27,1.27,0,0,1-2.1,0Zm37.07-2.23h-55V86.6A10.35,10.35,0,0,1,50.16,76.26H84.52A10.35,10.35,0,0,1,94.86,86.6Zm3.5,12.29-1.28.63v-11l1.28.63a5.44,5.44,0,0,1,0,9.77Zm18.21-4.29A2.69,2.69,0,0,1,114,97.6H103.33l.19-1a7.67,7.67,0,0,0-.12-3.24l-.28-1.1h8.22a1.12,1.12,0,0,0,1-.74L116,81.18l1,.67a7,7,0,0,0,3,1.19l1.06.15Zm6.17-15.25a4.9,4.9,0,0,1-1.77.33,4.79,4.79,0,0,1-4.76-4.74,4.88,4.88,0,0,1,.41-1.94A4.7,4.7,0,0,1,121,71.33a4.79,4.79,0,0,1,4.79,4.77A4.68,4.68,0,0,1,122.73,80.55Z"/></svg>