<svg id="Ebene_1" data-name="Ebene 1" xmlns="http://www.w3.org/2000/svg" viewBox="0 0 511.9 110.06"><defs><style>.cls-1{fill:#189eff;}</style></defs><title>shopware_logo</title><g id="_Gruppe_" data-name="&lt;Gruppe&gt;"><g id="_Gruppe_2" data-name="&lt;Gruppe&gt;"><path id="_Pfad_" data-name="&lt;Pfad&gt;" class="cls-1" d="M150.16,55.54c-4.67-2-8.53-3.87-8.53-6.92,0-2.14,2.43-4.17,6.5-4.17a24.26,24.26,0,0,1,10.07,2.34,2.19,2.19,0,0,0,3.05-.92l1.63-3.25a2.78,2.78,0,0,0-1-3.46,26.24,26.24,0,0,0-13.74-3.46c-11.4,0-16.06,6.92-16.06,12.82,0,7.73,6,11.6,13.21,14.85,6.51,2.95,10.07,5,10.07,8.14,0,2.65-2.23,4.58-6.2,4.58-5.6,0-9-1.93-11.7-3.46a2.11,2.11,0,0,0-3.06.61l-2.13,4.38a1.92,1.92,0,0,0,.81,2.44,27.33,27.33,0,0,0,15.47,4.78c10.48,0,16.79-6.41,16.79-13.73C165.33,62.36,158.81,59.2,150.16,55.54Z"/></g><g id="_Gruppe_3" data-name="&lt;Gruppe&gt;"><path id="_Pfad_2" data-name="&lt;Pfad&gt;" class="cls-1" d="M87.76,98c-4.78-3.6-11.83-6.34-19.29-9.23C59.59,85.33,49.52,81.43,42,75.42,33.39,68.6,29.23,60,29.23,49.12A29.72,29.72,0,0,1,41,25c8.59-6.77,21.6-10.34,37.63-10.34a92.7,92.7,0,0,1,12.58.81.79.79,0,0,0,.64-1.37,55,55,0,1,0-4,85.19.79.79,0,0,0,0-1.27Z"/><path id="_Pfad_3" data-name="&lt;Pfad&gt;" class="cls-1" d="M109.83,49.94a.84.84,0,0,0-.28-.54C98.06,39.87,88.77,36,77.49,36c-6,0-10.64,1.21-13.73,3.6a10.15,10.15,0,0,0-4.08,8.31c0,9.45,11.55,13.75,24.93,18.74,6.89,2.57,14,5.23,20.56,8.86a.76.76,0,0,0,.39.1.75.75,0,0,0,.26,0,.79.79,0,0,0,.47-.46A54.91,54.91,0,0,0,110.06,55C110.06,53.41,110,51.7,109.83,49.94Z"/></g><path id="_Zusammengesetzter_Pfad_" data-name="&lt;Zusammengesetzter Pfad&gt;" class="cls-1" d="M426.12,84.26a2.52,2.52,0,0,0,2.38-2.47V57.93c0-12.22-1.49-21.67-17.21-21.67A52.73,52.73,0,0,0,394.4,39a2.22,2.22,0,0,0-1.59,2.87l.95,4c.32,1.38,1.28,2.34,2.76,2a50.72,50.72,0,0,1,13.71-2.33c6.16,0,8.07,3.5,7.86,11.25a37.91,37.91,0,0,0-9.88-1.48c-12.64,0-19.65,6.79-19.65,15.82,0,10.2,6.47,13.65,15.71,13.65,7.54,0,15.3-.09,18.52-.3ZM418,75.61c-1.49,2.44-6.8,1.83-11.36,1.74-5.1-.11-7.65-1.9-7.65-6.25C399,66,403.32,63,409.06,63A22.45,22.45,0,0,1,418,64.72Z"/><path id="_Zusammengesetzter_Pfad_2" data-name="&lt;Zusammengesetzter Pfad&gt;" class="cls-1" d="M506.31,35.7a5.57,5.57,0,1,0-5.58-5.57A5.58,5.58,0,0,0,506.31,35.7Zm0-10.32a4.75,4.75,0,1,1-4.69,4.75A4.73,4.73,0,0,1,506.31,25.38Z"/><path id="_Zusammengesetzter_Pfad_3" data-name="&lt;Zusammengesetzter Pfad&gt;" class="cls-1" d="M504.42,33h.52a.15.15,0,0,0,.15-.15V30.74h1.22l1.05,2.1a.18.18,0,0,0,.17.11h.61a.15.15,0,0,0,.13-.23l-1.1-2A1.78,1.78,0,0,0,508.36,29a1.74,1.74,0,0,0-1.75-1.73h-2.19a.16.16,0,0,0-.16.16V32.8A.16.16,0,0,0,504.42,33Zm.69-4.85h1.43a1,1,0,0,1,1,.95,1,1,0,0,1-1,1h-1.43Z"/><path id="_Pfad_4" data-name="&lt;Pfad&gt;" class="cls-1" d="M196.58,35.7A22.77,22.77,0,0,0,183,40.58v-21a2.41,2.41,0,0,0-2.24-2.24H175a2.33,2.33,0,0,0-2.24,2.24v63A2.26,2.26,0,0,0,175,84.84h5.6A2.16,2.16,0,0,0,183,82.6V52.18a14,14,0,0,1,12.31-6.82c6.11,0,9.36,4.58,9.36,12.32V82.61a2.26,2.26,0,0,0,2.24,2.24h5.7a2.33,2.33,0,0,0,2.24-2.24V57.88C214.8,45.06,209.91,35.7,196.58,35.7Z"/><path id="_Zusammengesetzter_Pfad_4" data-name="&lt;Zusammengesetzter Pfad&gt;" class="cls-1" d="M315.78,58.38c-.57-16-7.25-22.68-22.67-22.68a65.63,65.63,0,0,0-17.53,2.78c-1.6.7-2.78,1.52-2.78,2.64V101a2.26,2.26,0,0,0,2.24,2.24h4.72A2.19,2.19,0,0,0,282.2,101V84.05a85.89,85.89,0,0,0,14.83.8c10.88-.34,18.19-8.24,18.8-21.58a59.4,59.4,0,0,0-.05-6ZM306,63.24c-.21,9.05-2.85,13.05-10.47,13.47-3.76.21-12.67-.84-12.67-.84-.37-.12-.62-.27-.62-.62V46.51a.54.54,0,0,1,.49-.54,48,48,0,0,1,10.44-1.35c9.28,0,12.56,1.36,12.86,13.11C306,59.29,306,61.46,306,63.24Z"/><path id="_Pfad_5" data-name="&lt;Pfad&gt;" class="cls-1" d="M383.17,36.72h-4.28c-1.22,0-2.95,0-3.56,1.42L367.8,65.21h-.2L355,36.82a2,2,0,0,0-2-1.12h-.71a2.15,2.15,0,0,0-1.94,1.12L337.58,65.1h-.2l-7.73-27a2.08,2.08,0,0,0-2-1.42h-6.1a1.69,1.69,0,0,0-1.63,2.64l13.74,44.26a1.85,1.85,0,0,0,1.93,1.22h.61A1.77,1.77,0,0,0,338,83.72l14.45-31.95h.2L367,83.72a2.2,2.2,0,0,0,2,1.12h.41a2.15,2.15,0,0,0,2.14-1.22L385,39.36C385.71,37.94,384.8,36.72,383.17,36.72Z"/><path id="_Pfad_6" data-name="&lt;Pfad&gt;" class="cls-1" d="M458.23,36.26c-.25,0-.49,0-.73,0-.41,0-.81,0-1.24,0-2.44,0-4.79.07-7,.19h0c-4.23.18-6.72.49-8.5.69,0,0-1.14.11-2.47.29a2.85,2.85,0,0,0-1.94,1,1.63,1.63,0,0,0-.44,1.11V82.6a2.26,2.26,0,0,0,2.24,2.24h4.68c1.94,0,3.26-.2,3.26-2.24V53.48h0V46.8c0-.28.44-.64.68-.78,1.15-.69,3.91-1.18,9.46-1.18.54,0,.89,0,1.29,0a14.17,14.17,0,0,1,3.93.88,2,2,0,0,0,2.85-1.11l2.44-4C468.3,37.48,462.7,36.26,458.23,36.26Z"/><path id="_Zusammengesetzter_Pfad_5" data-name="&lt;Zusammengesetzter Pfad&gt;" class="cls-1" d="M490.43,35.7C476.29,35.7,467,47,467,60.22c0,13.43,9.26,24.62,23.5,24.62,7.84,0,14-2.85,17.4-5.8,1.43-1.22,1-2.13.21-3.15l-2.75-4.28c-.82-1.22-1.73-.91-2.75-.2a18.2,18.2,0,0,1-11.5,4c-8.24,0-13.94-6.51-14-12.82h32.46a2.19,2.19,0,0,0,2.14-2c.1-.81.2-2.44.2-3.25C511.9,44.75,502.64,35.7,490.43,35.7ZM477.61,55c.71-5.9,5.19-10.68,12.62-10.68,6.92,0,11.39,5,11.6,10.68Z"/><path id="_Zusammengesetzter_Pfad_6" data-name="&lt;Zusammengesetzter Pfad&gt;" class="cls-1" d="M264.64,50.23a23.11,23.11,0,0,0-4.46-7.78,19.72,19.72,0,0,0-6.85-5,26.82,26.82,0,0,0-19.06,0,19.59,19.59,0,0,0-6.84,5A23,23,0,0,0,223,50.23a30.25,30.25,0,0,0-1.59,10A30.11,30.11,0,0,0,223,70.35a23,23,0,0,0,4.46,7.74,19.59,19.59,0,0,0,6.84,5,26.82,26.82,0,0,0,19.06,0,19.72,19.72,0,0,0,6.85-5,23.21,23.21,0,0,0,4.46-7.74,30.11,30.11,0,0,0,1.59-10.08A30.25,30.25,0,0,0,264.64,50.23Zm-21.1,26.51c-8.5,0-12.77-7.19-12.77-16.06s4.27-16,12.77-16,12.77,7.18,12.77,16S252,76.74,243.54,76.74Z"/></g></svg>