<?xml version="1.0" encoding="utf-8"?>
<!-- Generator: Adobe Illustrator 20.1.0, SVG Export Plug-In . SVG Version: 6.00 Build 0)  -->
<svg version="1.1" id="Layer_1" xmlns="http://www.w3.org/2000/svg" xmlns:xlink="http://www.w3.org/1999/xlink" x="0px" y="0px"
	 viewBox="0 0 800 400" style="enable-background:new 0 0 800 400;" xml:space="preserve">
<style type="text/css">
	.st0{clip-path:url(#SVGID_2_);}
	.st1{fill:#73C6DE;}
	.st2{fill:#62A7BE;}
	.st3{fill:#5197AA;}
	.st4{fill:#438799;}
</style>
<g>
	<g>
		<path d="M124.1,250h-18.7v-17.3h58V250h-18.7l-20.6,52.2V250z"/>
		<path d="M168.4,232.7H186v26.9h27.3v-26.9h17.6v69.5h-17.6v-28H186v28h-17.6V232.7z"/>
		<path d="M255.2,299.1c-5.7-3-10.1-7.3-13.4-12.8c-3.3-5.5-4.9-11.8-4.9-18.8c0-7.1,1.6-13.4,4.9-18.9c3.3-5.5,7.8-9.8,13.4-12.8
			c5.7-3.1,12-4.6,19-4.6s13.3,1.5,18.9,4.6c5.7,3.1,10.1,7.3,13.4,12.8c3.2,5.5,4.9,11.8,4.9,18.9s-1.6,13.4-4.9,18.8
			c-3.3,5.5-7.7,9.7-13.4,12.8c-5.7,3.1-12,4.6-18.9,4.6C267.2,303.7,260.9,302.2,255.2,299.1z M283.9,284.8c2.9-1.6,5.2-3.9,7-6.9
			c1.7-3,2.6-6.5,2.6-10.4s-0.8-7.4-2.5-10.4c-1.7-2.9-4-5.2-6.9-6.9c-2.9-1.6-6.2-2.4-9.7-2.4c-3.6,0-6.9,0.8-9.8,2.4
			c-2.9,1.6-5.2,3.9-6.9,6.9c-1.7,3-2.5,6.4-2.5,10.4s0.8,7.5,2.5,10.4c1.7,3,4,5.3,7,6.9c2.9,1.6,6.2,2.4,9.8,2.4
			C277.7,287.2,281,286.4,283.9,284.8z"/>
		<path d="M325.3,295.3c-5.3-5.6-8-13-8-22.2v-40.4h17.6v40.6c0,4.6,1.2,8.2,3.7,10.5c2.5,2.4,5.9,3.6,10.3,3.6s7.8-1.2,10.2-3.6
			c2.5-2.4,3.7-5.9,3.7-10.5v-40.6h17.6v40.4c0,9.3-2.6,16.7-7.9,22.3c-5.3,5.6-13.1,8.4-23.6,8.4S330.6,300.9,325.3,295.3z"/>
		<path d="M404.9,299.3c-5.7-2.9-10.2-7.1-13.3-12.6c-3.1-5.5-4.7-11.9-4.7-19.2s1.6-13.8,4.7-19.2c3.1-5.5,7.5-9.7,13.3-12.6
			c5.7-2.9,12.4-4.4,19.9-4.4c5,0,9.5,0.5,13.4,1.4c3.9,1,7.5,2.5,10.8,4.6V254c-2.9-2.3-6.2-4-9.9-5s-7.9-1.5-12.7-1.5
			c-4.1,0-7.8,0.8-11,2.4c-3.2,1.6-5.8,4-7.6,7c-1.9,3.1-2.8,6.6-2.8,10.6c0,6.3,1.8,11.3,5.5,14.9s8.7,5.5,15,5.5
			c3.5,0,6.5-0.6,8.9-1.8V275h-10.6v-12.3h27.4v34.6c-7.1,4.3-15.8,6.5-26.3,6.5C417.3,303.7,410.6,302.2,404.9,299.3z"/>
		<path d="M458,232.7h17.6v26.9h27.3v-26.9h17.6v69.5h-17.6v-28h-27.3v28H458V232.7z"/>
		<path d="M545.6,247.5H526v-14.8h56.9v14.8h-19.7v54.7h-17.6L545.6,247.5L545.6,247.5z"/>
		<path d="M588.4,232.7h31.2c8.2,0,14.5,2.1,19.1,6.2c4.6,4.1,6.9,10,6.9,17.7c0,5.2-1.1,9.6-3.4,13.2c-2.3,3.6-5.4,6.4-9.5,8.2
			l12.3,24.3h-18.1l-11-21.8H606v21.8h-17.6V232.7z M616.5,265.6c3.5,0,6.2-0.7,8.2-2c1.9-1.4,2.9-3.7,2.9-7c0-3.4-0.9-5.8-2.8-7.1
			c-1.9-1.3-4.6-1.9-8.2-1.9H606v18.1h10.5V265.6z"/>
		<path d="M676.6,232.7h17.3l27.8,69.5h-18l-5.6-14.3h-25.7l-5.6,14.3h-18.1L676.6,232.7z M693.7,274.3l-8.5-23.4l-8.6,23.4H693.7z"
			/>
		<path d="M726,232.7h16.9l20.1,43.1l20.2-43.1H800v69.5h-16.4v-34.9L767,302.2h-8l-16.5-34.9v34.9H726V232.7z"/>
	</g>
	<g>
		<g>
			<g>
				<defs>
					<path id="SVGID_1_" d="M175.4,141.5l-18.7-8.3v-12.8l-21-6.1l-10.5,7.7v13.2l-14.5,8.7l2.8,17.2c2.8,0.7,5,2.9,5.5,5.9
						c0.6,4-2.1,7.7-6,8.3c-4,0.6-7.7-2.1-8.3-6c-0.5-3,0.9-5.9,3.4-7.4l-3.4-20.9l15-9v-8.7H99c-1.1,2.6-3.7,4.5-6.7,4.5
						c-4,0-7.3-3.3-7.3-7.3s3.3-7.3,7.3-7.3c3,0,5.6,1.9,6.7,4.5h22.6l10.8-8v-6L119.7,96H76.2l-3.9,8.3H48.6l-6.8,8.4l-9.1-0.8
						L16,129.8v23.6h14.9l19.4-17c-0.9-2.7-0.2-5.8,2.1-7.8c3-2.6,7.6-2.3,10.3,0.7c2.6,3,2.3,7.6-0.7,10.3c-2.3,2-5.5,2.3-8,1
						l-19.3,16.9l-1,24c2.6,1.2,4.3,3.9,4.2,6.9c-0.2,4-3.6,7.1-7.6,7c-4-0.2-7.1-3.6-7-7.6c0.1-3,2.1-5.5,4.8-6.5l1-22.3H12
						l-7.1,4.9L0,194.4L19.3,219l24.4,6.9l10-9.3h17.1l7.4-7.9l-15.7-17.2l4.9-21.6c-2.3-1.6-3.6-4.6-2.9-7.6
						c0.9-3.9,4.8-6.4,8.7-5.5c3.9,0.9,6.4,4.8,5.5,8.7c-0.7,3-3.1,5.1-5.9,5.6l-4.3,18.8l15.3,16.8h7.6l5.1-8.8h51.8l5.3-8.4v-14.7
						l-4.6-10.1c-2.9,0.1-5.6-1.5-6.9-4.3c-1.7-3.7,0-8,3.6-9.6c3.7-1.7,8,0,9.6,3.6c1.3,2.8,0.6,5.9-1.3,8l5.1,11.2v11.6h12.1
						l10.5-18.5L175.4,141.5z"/>
				</defs>
				<clipPath id="SVGID_2_">
					<use xlink:href="#SVGID_1_"  style="overflow:visible;"/>
				</clipPath>
				<g class="st0">
					<polygon class="st1" points="19.3,219 30.5,188.2 53.7,216.7 43.7,225.9 					"/>
					<polygon class="st2" points="80.1,206.7 65.5,190.7 30.5,188.2 53.7,216.7 70.8,216.7 					"/>
					<polygon class="st2" points="0,194.4 30.5,188.2 19.3,219 					"/>
					<polygon class="st3" points="0,194.4 4.9,163.9 30.5,188.2 					"/>
					<polygon class="st4" points="4.9,163.9 30.5,188.2 71.6,164 31.9,156.3 16,156.3 					"/>
					<polygon class="st3" points="71.6,164 30.5,188.2 65.5,190.7 					"/>
					<polygon class="st2" points="32.8,112.2 57.2,134.2 16,129.8 					"/>
					<polygon class="st1" points="16,129.8 57.2,134.2 31.9,156.3 16,156.3 					"/>
					<polygon class="st4" points="41.8,113 57.2,134.2 32.8,112.2 					"/>
					<polygon class="st1" points="48.6,104.6 57.2,134.2 41.8,113 					"/>
					<polygon class="st3" points="72.2,104.6 48.6,104.6 57.2,134.2 					"/>
					<polygon class="st1" points="72.2,104.6 92.3,120.7 76.2,96.3 					"/>
					<polygon class="st4" points="76.2,96.3 92.3,120.7 119.7,96.3 					"/>
					<polygon class="st3" points="119.7,96.3 92.3,120.7 122.5,120.7 132.4,113.5 132.4,104.1 					"/>
					<polygon class="st2" points="72.2,104.6 92.3,120.7 57.2,134.2 					"/>
					<polygon class="st2" points="57.2,134.2 71.6,164 31.9,156.3 					"/>
					<polygon class="st3" points="57.2,134.2 71.6,164 111.9,168.4 					"/>
					<polygon class="st1" points="57.2,134.2 111.9,168.4 92.3,120.7 					"/>
					<polygon class="st2" points="92.3,120.7 111.9,168.4 107.8,142.7 122.5,133.8 122.5,120.7 					"/>
					<polygon class="st1" points="96.6,197.9 111.9,168.4 148.4,197.9 					"/>
					<polygon class="st4" points="148.4,197.9 111.9,168.4 156.5,185.2 					"/>
					<polygon class="st2" points="71.6,164 91.4,206.7 96.6,197.9 111.9,168.4 					"/>
					<polygon class="st1" points="91.4,206.7 71.6,164 65.5,190.7 80.1,206.7 					"/>
					<polygon class="st3" points="156.8,133.3 148.8,157.4 175.4,141.5 					"/>
					<polygon class="st2" points="175.4,141.5 148.8,157.4 181.8,166.7 					"/>
					<polygon class="st1" points="181.8,166.7 148.8,157.4 171.3,185.2 					"/>
					<polygon class="st2" points="148.8,157.4 111.9,168.4 156.5,185.2 171.3,185.2 					"/>
					<polygon class="st3" points="111.9,168.4 148.8,157.4 122.5,133.8 107.8,142.7 					"/>
					<polygon class="st4" points="156.8,120.5 156.8,133.3 148.8,157.4 132.4,113.5 					"/>
					<polygon class="st2" points="134.8,111.7 148.8,157.4 122.5,133.8 122.5,120.7 					"/>
				</g>
			</g>
		</g>
	</g>
</g>
</svg>
