<?xml version="1.0" encoding="utf-8"?>
<!-- Generator: Adobe Illustrator 19.1.0, SVG Export Plug-In . SVG Version: 6.00 Build 0)  -->
<svg version="1.1" id="Layer_1" xmlns="http://www.w3.org/2000/svg" xmlns:xlink="http://www.w3.org/1999/xlink" x="0px" y="0px"
	 viewBox="0 0 428 130.3" style="enable-background:new 0 0 428 130.3;" xml:space="preserve">
<style type="text/css">
	.st0{fill:#0980AC;}
	.st1{fill:#E6C712;}
	.st2{fill:#0F6C8F;}
	.st3{fill:#3FAEC1;}
	.st4{fill:#52BADF;}
	.st5{fill:#2B3B45;}
</style>
<g>
	<polygon class="st0" points="1.5,36.1 44,36.1 90.8,129.2 48.3,129.2 	"/>
	<polygon class="st1" points="163.1,1.6 131.2,65.4 173.8,65.4 205.7,1.6 	"/>
	<polygon class="st2" points="90.8,129.2 44,36.1 48.3,129.2 	"/>
	<polygon class="st3" points="90.8,129.2 48.3,129.2 80.2,65.4 48.3,1.6 90.8,1.6 122.7,65.4 	"/>
	<polygon class="st4" points="90.8,1.6 122.7,65.4 80.2,65.4 48.3,1.6 	"/>
	<g>
		<path class="st5" d="M210.5,60.6c0-0.7,0.4-1.3,1.3-1.9c0.9-0.5,1.8-0.8,2.7-0.8c1,0,1.6,0.4,1.9,1.1l6.7,18.7l5.1-16.6
			c0.3-0.9,1-1.4,2.2-1.4c1.2,0,1.9,0.5,2.2,1.4l5,16.7l6.7-18.8c0.2-0.8,0.9-1.1,1.9-1.1c0.9,0,1.8,0.3,2.7,0.8
			c0.9,0.5,1.4,1.2,1.4,1.9c0,0.3-0.1,0.6-0.2,1L240.8,86c-0.3,0.8-1.2,1.3-2.5,1.3c-1.4,0-2.2-0.4-2.6-1.2l-5.2-15.5l-5.2,15.3
			c-0.4,0.9-1.3,1.4-2.7,1.4c-1.3,0-2.2-0.5-2.5-1.4l-9.3-24.3C210.6,61.2,210.5,60.8,210.5,60.6z"/>
		<path class="st5" d="M258,75.2v-5.7c0-3.2,1.2-5.9,3.7-8.2c2.4-2.3,5.4-3.4,8.8-3.4c3.3,0,6.1,1,8.4,3.1c2.3,2.1,3.5,4.7,3.5,7.9
			c0,1.2-0.1,2.2-0.4,3c-0.3,0.8-0.7,1.3-1.3,1.6c-0.6,0.3-1.2,0.5-1.7,0.6c-0.5,0.1-1.2,0.1-2,0.1h-12.7v1.4c0,2,0.7,3.6,2.2,4.8
			c1.4,1.2,3.3,1.8,5.6,1.8c1.6,0,3.2-0.4,4.7-1.1c1.5-0.8,2.3-1.1,2.7-1.1c0.7,0,1.3,0.3,1.7,1c0.5,0.6,0.7,1.3,0.7,1.9
			c0,1-1,2-2.9,3c-1.9,1-4.3,1.5-7.1,1.5c-4.1,0-7.4-1.1-10-3.3C259.3,81.6,258,78.8,258,75.2z M264.3,70.1h10
			c0.9,0,1.5-0.1,1.8-0.4c0.3-0.2,0.5-0.7,0.5-1.4c0-1.6-0.6-2.9-1.7-4c-1.2-1.1-2.6-1.7-4.3-1.7c-1.7,0-3.1,0.5-4.3,1.6
			c-1.2,1-1.8,2.4-1.8,4V70.1z"/>
		<path class="st5" d="M293.9,84.6V47.2c0-0.6,0.3-1.1,0.8-1.5c0.6-0.4,1.3-0.6,2.2-0.6c0.9,0,1.7,0.2,2.3,0.6
			c0.6,0.4,0.9,0.9,0.9,1.5v15.2c0.7-1.3,1.7-2.4,3.1-3.3c1.4-0.9,2.9-1.3,4.7-1.3c3,0,5.5,1.2,7.6,3.5c2.1,2.3,3.1,5.1,3.1,8.3v5.5
			c0,3.1-1.1,5.9-3.2,8.3c-2.1,2.4-4.6,3.6-7.4,3.6c-1.8,0-3.5-0.5-5-1.4c-1.5-0.9-2.6-2-3.3-3.3v2.1c0,0.5-0.3,1-0.9,1.5
			c-0.6,0.4-1.2,0.7-2,0.7c-0.9,0-1.6-0.2-2.2-0.7C294.2,85.6,293.9,85.1,293.9,84.6z M300.2,76.6c0,0.9,0.6,1.9,1.9,3.1
			c1.3,1.2,2.7,1.8,4.2,1.8c1.6,0,3.1-0.6,4.3-1.9c1.2-1.3,1.8-2.8,1.8-4.4v-5.5c0-1.6-0.6-3-1.8-4.3c-1.2-1.3-2.7-1.9-4.3-1.9
			c-1.6,0-3,0.6-4.2,1.7c-1.2,1.2-1.9,2.6-1.9,4.5V76.6z"/>
		<path class="st5" d="M330.6,77.3V47.2c0-0.6,0.3-1,1-1.4c0.6-0.4,1.4-0.6,2.2-0.6c0.8,0,1.5,0.2,2.2,0.6c0.7,0.4,1,0.9,1,1.4v11
			h7.3c0.5,0,0.9,0.2,1.3,0.7c0.3,0.5,0.5,1,0.5,1.6c0,0.6-0.2,1.2-0.5,1.6c-0.3,0.5-0.7,0.7-1.3,0.7h-7.3v14.4
			c0,1.4,0.3,2.5,0.9,3.1c0.6,0.6,1.7,0.9,3.3,0.9h2.1c0.8,0,1.5,0.3,2,0.8c0.5,0.5,0.7,1.2,0.7,1.9c0,0.8-0.2,1.4-0.7,1.9
			c-0.5,0.5-1.1,0.8-2,0.8h-2.1C334.1,86.7,330.6,83.5,330.6,77.3z"/>
		<path class="st5" d="M356.8,84.6V60.3c0-0.6,0.3-1.1,0.9-1.5c0.6-0.4,1.3-0.6,2.2-0.6c0.8,0,1.5,0.2,2,0.6
			c0.6,0.4,0.8,0.9,0.8,1.5v2.7c0.7-1.4,1.7-2.6,3.1-3.6c1.4-1,2.9-1.5,4.5-1.5h1.9c0.6,0,1.2,0.3,1.7,0.8c0.5,0.5,0.7,1.2,0.7,2
			c0,0.8-0.2,1.4-0.7,2c-0.5,0.6-1,0.8-1.7,0.8h-1.9c-1.9,0-3.6,0.8-5.1,2.5c-1.5,1.6-2.2,3.8-2.2,6.4v12.3c0,0.5-0.3,1-1,1.4
			c-0.6,0.4-1.4,0.7-2.3,0.7c-0.9,0-1.6-0.2-2.2-0.7C357.1,85.6,356.8,85.1,356.8,84.6z"/>
		<path class="st5" d="M402.4,84c0-0.4,0.1-0.8,0.4-1.1l7.4-10.7l-7.1-10.1c-0.3-0.4-0.4-0.7-0.4-1.1c0-0.7,0.5-1.4,1.4-2.1
			c0.9-0.7,1.8-1,2.7-1c0.7,0,1.2,0.2,1.5,0.7l6.1,9.6l6.1-9.5c0.3-0.5,0.8-0.8,1.6-0.8c0.8,0,1.7,0.3,2.6,1c1,0.7,1.4,1.4,1.4,2.1
			c0,0.3-0.1,0.7-0.4,1.1l-7.1,10.1l7.5,10.6c0.3,0.4,0.4,0.7,0.4,1.1c0,0.7-0.5,1.4-1.4,2.1c-0.9,0.7-1.8,1-2.6,1
			c-0.8,0-1.3-0.2-1.6-0.7l-6.5-9.9l-6.5,9.9c-0.4,0.5-0.9,0.7-1.7,0.7c-0.8,0-1.6-0.3-2.5-1C402.9,85.4,402.4,84.7,402.4,84z"/>
		<path class="st5" d="M384.7,48.5c0-0.9,0.4-1.7,1.1-2.3c0.7-0.6,1.6-1,2.6-1c1,0,1.9,0.3,2.6,1c0.7,0.6,1.1,1.4,1.1,2.3
			c0,0.9-0.4,1.7-1.1,2.3c-0.7,0.7-1.6,1-2.6,1c-1,0-1.9-0.3-2.6-1C385.1,50.1,384.7,49.4,384.7,48.5z M385.2,84.6V60.3
			c0-0.6,0.3-1.1,0.9-1.5c0.6-0.4,1.3-0.6,2.3-0.6c0.9,0,1.7,0.2,2.3,0.6c0.6,0.4,0.9,0.9,0.9,1.5v24.3c0,0.5-0.3,1-0.9,1.4
			c-0.6,0.4-1.4,0.7-2.3,0.7c-0.9,0-1.6-0.2-2.2-0.7C385.5,85.6,385.2,85.1,385.2,84.6z"/>
	</g>
</g>
</svg>
