<?xml version="1.0" encoding="utf-8"?>
<!-- Generator: Adobe Illustrator 15.0.0, SVG Export Plug-In . SVG Version: 6.00 Build 0)  -->
<!DOCTYPE svg PUBLIC "-//W3C//DTD SVG 1.1//EN" "http://www.w3.org/Graphics/SVG/1.1/DTD/svg11.dtd">
<svg version="1.1" id="Layer_1" xmlns="http://www.w3.org/2000/svg" xmlns:xlink="http://www.w3.org/1999/xlink" x="0px" y="0px"
	 width="266px" height="29.813px" viewBox="0 0 266 29.813" enable-background="new 0 0 266 29.813" xml:space="preserve">
<g>
	<g>
		<polygon fill="#FFFFFF" points="69.125,4.12 69.125,27.7 65.995,27.7 65.995,10.517 58.101,27.7 56.093,27.7 48.165,10.517 
			48.165,27.7 45.068,27.7 45.068,4.12 48.233,4.12 57.114,23.446 65.961,4.12 		"/>
		<path fill="#FFFFFF" d="M75.555,25.267c-1.701-1.826-2.552-4.162-2.552-7.008c0-2.848,0.845-5.15,2.536-6.908
			c1.688-1.758,3.815-2.637,6.379-2.637c1.587,0,2.977,0.375,4.168,1.123c1.192,0.748,2.093,1.723,2.705,2.926V9.019h3.131V27.7
			h-3.131v-3.812c-0.612,1.227-1.513,2.219-2.705,2.979c-1.191,0.762-2.581,1.141-4.168,1.141
			C79.377,28.007,77.256,27.093,75.555,25.267 M86.937,23.446c1.236-1.27,1.854-2.961,1.854-5.068c0-2.111-0.618-3.801-1.854-5.072
			c-1.235-1.268-2.722-1.904-4.457-1.904c-1.734,0-3.222,0.611-4.458,1.836c-1.235,1.227-1.854,2.895-1.854,5.002
			c0,2.111,0.624,3.824,1.873,5.141c1.247,1.314,2.733,1.973,4.457,1.973C84.22,25.353,85.702,24.718,86.937,23.446"/>
		<path fill="#FFFFFF" d="M98.319,25.353c-1.679-1.77-2.518-4.102-2.518-6.992c0-2.893,0.839-5.225,2.518-6.992
			c1.68-1.771,3.856-2.656,6.533-2.656c2.246,0,4.077,0.523,5.495,1.568c1.418,1.043,2.41,2.527,2.979,4.457h-3.335
			c-0.362-1.09-0.986-1.941-1.871-2.555c-0.886-0.609-1.975-0.918-3.268-0.918c-1.769,0-3.192,0.619-4.27,1.855
			s-1.617,2.982-1.617,5.24s0.54,4.004,1.617,5.238c1.077,1.236,2.501,1.857,4.27,1.857c2.655,0,4.366-1.16,5.139-3.471h3.335
			c-0.568,1.836-1.571,3.299-3.013,4.389c-1.439,1.088-3.261,1.631-5.461,1.631C102.175,28.005,99.999,27.122,98.319,25.353"/>
		<path fill="#FFFFFF" d="M120.538,2.521v9.527c1.271-2.223,3.302-3.336,6.092-3.336c2.062,0,3.788,0.689,5.172,2.059
			c1.383,1.373,2.075,3.33,2.075,5.871V27.7h-3.062V17.153c0-1.885-0.454-3.314-1.361-4.287c-0.907-0.977-2.16-1.465-3.76-1.465
			c-1.599,0-2.857,0.488-3.776,1.465c-0.92,0.973-1.379,2.402-1.379,4.287V27.7h-3.097V2.521H120.538z"/>
		<path fill="#FFFFFF" d="M141.873,5.413c-0.408,0.408-0.907,0.611-1.497,0.611c-0.591,0-1.084-0.203-1.481-0.611
			c-0.396-0.408-0.594-0.906-0.594-1.496s0.204-1.09,0.612-1.498c0.407-0.41,0.9-0.613,1.479-0.613c0.579,0,1.073,0.203,1.481,0.613
			c0.407,0.408,0.611,0.908,0.611,1.498S142.28,5.005,141.873,5.413 M138.809,9.019h3.097V27.7h-3.097V9.019z"/>
		<path fill="#FFFFFF" d="M150.106,9.019v3.029c1.271-2.223,3.302-3.336,6.092-3.336c2.062,0,3.787,0.689,5.173,2.059
			c1.383,1.373,2.074,3.33,2.074,5.871V27.7h-3.062V17.153c0-1.885-0.454-3.314-1.361-4.287c-0.907-0.977-2.161-1.465-3.76-1.465
			s-2.857,0.488-3.777,1.465c-0.919,0.973-1.378,2.402-1.378,4.287V27.7h-3.097V9.019H150.106z"/>
		<path fill="#FFFFFF" d="M176.205,28.005c-2.676,0-4.855-0.885-6.533-2.652c-1.678-1.77-2.518-4.105-2.518-7.01
			c0-2.902,0.85-5.232,2.551-6.992c1.703-1.758,3.908-2.639,6.619-2.639s4.887,0.834,6.533,2.502
			c1.645,1.668,2.467,3.793,2.467,6.379c0,0.658-0.045,1.271-0.135,1.84h-14.871c0.092,1.859,0.676,3.328,1.754,4.404
			c1.076,1.078,2.455,1.617,4.133,1.617c1.27,0,2.342-0.283,3.215-0.85c0.873-0.568,1.514-1.316,1.922-2.246h3.336
			c-0.59,1.633-1.605,2.982-3.045,4.049C180.191,27.474,178.382,28.005,176.205,28.005 M180.39,12.882
			c-1.111-1.076-2.49-1.615-4.135-1.615s-3.012,0.525-4.1,1.582c-1.088,1.055-1.691,2.5-1.805,4.338h11.74
			C182.07,15.396,181.501,13.958,180.39,12.882"/>
		<polygon fill="#FFFFFF" points="189.167,3.948 193.966,3.948 193.966,24.06 201.589,24.06 201.589,27.7 189.167,27.7 		"/>
		<path fill="#FFFFFF" d="M206.027,25.233c-1.689-1.826-2.535-4.158-2.535-6.994c0-2.834,0.84-5.154,2.52-6.957
			c1.678-1.803,3.811-2.705,6.396-2.705s4.561,1.068,5.92,3.199V8.851h4.766V27.7h-4.766v-3.166
			c-1.43,2.293-3.414,3.439-5.955,3.439C209.833,27.974,207.718,27.06,206.027,25.233 M216.832,22.341
			c0.998-0.986,1.496-2.342,1.496-4.064c0-1.727-0.498-3.082-1.496-4.068c-1-0.984-2.168-1.479-3.506-1.479s-2.5,0.486-3.486,1.463
			c-0.986,0.975-1.48,2.326-1.48,4.047c0,1.725,0.498,3.086,1.496,4.084s2.162,1.498,3.488,1.498
			C214.671,23.821,215.832,23.327,216.832,22.341"/>
		<path fill="#FFFFFF" d="M232.994,11.774c1.338-2.131,3.301-3.197,5.887-3.197s4.717,0.9,6.396,2.705s2.52,4.129,2.52,6.977
			c0,2.846-0.84,5.176-2.52,6.992c-1.68,1.814-3.795,2.721-6.346,2.721s-4.531-1.145-5.938-3.438V27.7h-4.799V2.521h4.799V11.774z
			 M241.449,22.323c0.986-0.998,1.48-2.357,1.48-4.084c0-1.723-0.494-3.07-1.48-4.049c-0.986-0.973-2.148-1.463-3.486-1.463
			c-1.34,0-2.502,0.494-3.488,1.482c-0.988,0.984-1.48,2.342-1.48,4.064c0,1.725,0.492,3.08,1.48,4.066
			c0.986,0.986,2.148,1.48,3.488,1.48C239.3,23.821,240.462,23.321,241.449,22.323"/>
		<path fill="#FFFFFF" d="M250.517,14.36c0-1.633,0.691-3.004,2.076-4.115c1.383-1.113,3.221-1.668,5.512-1.668
			s4.129,0.551,5.514,1.65c1.381,1.102,2.119,2.592,2.211,4.475h-4.9c-0.137-1.588-1.111-2.383-2.926-2.383
			c-0.908,0-1.611,0.184-2.111,0.545c-0.498,0.363-0.748,0.861-0.748,1.496c0,0.637,0.375,1.137,1.123,1.498
			c0.748,0.363,1.656,0.648,2.723,0.852c1.066,0.205,2.127,0.459,3.182,0.764c1.055,0.307,1.955,0.854,2.705,1.635
			c0.748,0.781,1.123,1.82,1.123,3.113c0,1.703-0.721,3.084-2.162,4.152c-1.439,1.064-3.277,1.598-5.51,1.598
			c-2.236,0-4.068-0.527-5.498-1.582c-1.428-1.053-2.209-2.568-2.346-4.543h4.898c0.182,1.588,1.191,2.383,3.029,2.383
			c0.885,0,1.598-0.199,2.143-0.596s0.816-0.918,0.816-1.566c0-0.645-0.373-1.154-1.123-1.529c-0.748-0.373-1.656-0.664-2.721-0.867
			c-1.066-0.205-2.127-0.455-3.182-0.748c-1.055-0.295-1.957-0.824-2.705-1.582C250.89,16.581,250.517,15.587,250.517,14.36"/>
	</g>
	<path fill="#FFFFFF" d="M12.295,11.188c3.084,0,5.594-2.509,5.594-5.593C17.89,2.51,15.38,0,12.295,0S6.701,2.51,6.701,5.595
		c0,0.816,0.18,1.59,0.496,2.289l-6.643,5.74C0.204,13.927,0.002,14.366,0,14.828c-0.001,0.463,0.197,0.903,0.545,1.209
		l10.695,9.385c0.304,0.267,0.68,0.397,1.055,0.397c0.444,0,0.887-0.184,1.203-0.544c0.583-0.664,0.517-1.676-0.147-2.258
		l-9.314-8.174l5.254-4.54C10.16,10.86,11.189,11.188,12.295,11.188z M12.295,3.2c1.32,0,2.394,1.074,2.394,2.395
		c0,1.319-1.074,2.393-2.394,2.393S9.901,6.914,9.901,5.595C9.901,4.274,10.975,3.2,12.295,3.2z"/>
	<path fill="#FFFFFF" d="M34.589,14.983c0.001-0.462-0.197-0.902-0.545-1.208L23.351,4.391c-0.663-0.582-1.674-0.517-2.258,0.147
		c-0.583,0.664-0.517,1.675,0.147,2.258l9.312,8.173l-5.253,4.54c-0.869-0.556-1.898-0.883-3.004-0.883
		c-3.084,0-5.594,2.509-5.594,5.594s2.51,5.594,5.594,5.594s5.594-2.509,5.594-5.594c0-0.816-0.18-1.591-0.496-2.291l6.642-5.74
		C34.385,15.886,34.587,15.446,34.589,14.983z M22.295,26.614c-1.32,0-2.394-1.074-2.394-2.395s1.074-2.395,2.394-2.395
		s2.394,1.074,2.394,2.395S23.616,26.614,22.295,26.614z"/>
</g>
</svg>
