<?xml version="1.0" standalone="no"?>
<!DOCTYPE svg PUBLIC "-//W3C//DTD SVG 20010904//EN"
 "http://www.w3.org/TR/2001/REC-SVG-20010904/DTD/svg10.dtd">
<svg version="1.0" xmlns="http://www.w3.org/2000/svg"
 width="446.000000pt" height="446.000000pt" viewBox="0 0 446.000000 446.000000"
 preserveAspectRatio="xMidYMid meet">
<metadata>
Created by potrace 1.11, written by Peter Selinger 2001-2013
</metadata>
<g transform="translate(0.000000,446.000000) scale(0.100000,-0.100000)"
fill="#000000" stroke="none">
<path d="M1691 3454 c-209 -56 -351 -251 -338 -467 4 -84 8 -103 25 -147 9
-24 2 -32 -111 -130 -228 -198 -364 -316 -405 -350 -90 -74 -96 -176 -15 -240
16 -12 44 -36 63 -53 19 -18 66 -59 105 -92 38 -33 76 -67 85 -75 9 -8 45 -40
80 -71 36 -31 128 -112 205 -179 77 -68 169 -148 204 -179 35 -31 80 -71 100
-89 48 -43 84 -62 124 -64 70 -2 137 61 137 132 0 52 -29 93 -116 167 -67 57
-641 560 -676 593 l-27 25 67 57 c37 32 81 70 98 85 18 16 45 39 60 52 16 14
69 60 118 102 l89 78 36 -19 c214 -109 477 -40 608 160 172 263 33 625 -272
705 -73 19 -173 18 -244 -1z m219 -278 c54 -27 93 -89 98 -155 10 -147 -121
-248 -261 -202 -39 13 -102 76 -118 118 -13 35 -13 102 -1 134 15 37 71 99
101 111 69 28 112 27 181 -6z"/>
<path d="M2591 3122 c-64 -32 -93 -104 -67 -167 13 -31 101 -114 346 -325 14
-12 39 -34 55 -48 17 -15 64 -56 105 -92 41 -36 77 -67 80 -70 3 -3 53 -48
113 -99 59 -52 107 -97 106 -100 0 -3 -58 -54 -128 -114 -69 -59 -140 -119
-157 -135 -58 -52 -146 -122 -155 -122 -4 0 -10 4 -14 9 -14 24 -123 54 -207
57 -254 10 -460 -170 -484 -422 -16 -163 60 -328 195 -423 234 -164 557 -83
685 172 60 121 66 220 22 377 -7 24 11 41 226 227 128 111 244 211 258 222 95
80 116 122 98 187 -11 40 -26 57 -153 168 -49 43 -121 106 -159 140 -38 33
-79 69 -90 79 -12 9 -46 39 -76 66 -244 219 -480 419 -501 424 -39 11 -62 8
-98 -11z m127 -1485 c73 -27 126 -103 126 -182 1 -117 -94 -206 -211 -198 -54
3 -92 23 -131 67 -134 153 24 382 216 313z"/>
</g>
</svg>
